<?xml version="1.0" encoding="UTF-8"?>
<svg version="1.1" xmlns="http://www.w3.org/2000/svg" width="488" height="593">
<path d="M0 0 C1.99954746 -0.04254356 4.00041636 -0.04080783 6 0 C7 1 7 1 7.11352539 4.60180664 C7.11336625 6.20459856 7.10767063 7.8073956 7.09765625 9.41015625 C7.0962413 10.25219101 7.09482635 11.09422577 7.09336853 11.96177673 C7.08775263 14.66205335 7.07519748 17.36224828 7.0625 20.0625 C7.05748705 21.88867068 7.05292379 23.71484266 7.04882812 25.54101562 C7.03777804 30.02737542 7.02050279 34.51367384 7 39 C10.3 39 13.6 39 17 39 C16.53195557 50.44245454 15.74355735 61.67534111 14 73 C16.64 73 19.28 73 22 73 C24.27223215 79.27136074 25.79850665 85.43799785 27 92 C31.95 92 36.9 92 42 92 C41.44341769 97.97364148 40.5222065 103.53833905 38.93359375 109.31640625 C38.73524429 110.05833725 38.53689484 110.80026825 38.33253479 111.56468201 C37.7069856 113.89898837 37.07242754 116.2307292 36.4375 118.5625 C36.00786116 120.15934326 35.57881946 121.7563473 35.15039062 123.35351562 C34.10714195 127.23756674 33.05581504 131.11934689 32 135 C35.3 135 38.6 135 42 135 C41.39756702 140.64121575 40.38392472 145.95785389 38.93359375 151.4375 C38.73524429 152.20304199 38.53689484 152.96858398 38.33253479 153.75732422 C37.70555271 156.1728009 37.07165551 158.58639787 36.4375 161 C36.00800268 162.64961966 35.57896192 164.29935826 35.15039062 165.94921875 C34.1055294 169.96753911 33.05446774 173.98419034 32 178 C35.3 178 38.6 178 42 178 C41.40647014 183.57972772 40.40952138 188.81080169 38.93359375 194.21875 C38.73524429 194.96209595 38.53689484 195.70544189 38.33253479 196.47131348 C37.70580417 198.81556903 37.07179091 201.1577801 36.4375 203.5 C36.00797784 205.10143231 35.5789369 206.70299377 35.15039062 208.3046875 C34.10581236 212.20463873 33.05470385 216.10277552 32 220 C35.3 220 38.6 220 42 220 C41.43669712 225.44161153 40.42782863 230.4620518 38.828125 235.69921875 C38.40536659 237.17190041 37.98487078 238.6452331 37.56640625 240.11914062 C36.91922879 242.38717038 36.26202681 244.64868463 35.56396484 246.90161133 C32.80762558 255.86319166 31.58656999 263.42435027 33.17407227 272.72998047 C33.3161527 273.63566804 33.45823313 274.54135561 33.60461903 275.47448826 C34.05481067 278.31896589 34.52624801 281.15936195 35 284 C35.28661913 285.77702425 35.57225156 287.55420796 35.85684204 289.33155823 C36.58630832 293.85380377 37.33695845 298.37225496 38.09512901 302.8897686 C38.58951536 305.83729191 39.08033006 308.78539181 39.57026672 311.73365784 C40.96058689 320.09711259 42.35617572 328.45968138 43.75610352 336.8215332 C44.6195275 341.98030681 45.47825662 347.13984411 46.33408546 352.29988289 C46.65880455 354.25178233 46.9853388 356.20338072 47.31375694 358.15466118 C47.77046026 360.86858947 48.22120778 363.5834459 48.6706543 366.29858398 C48.80620224 367.09493759 48.94175018 367.8912912 49.08140564 368.71177673 C49.20328247 369.45536438 49.3251593 370.19895203 49.45072937 370.96507263 C49.55744807 371.60333198 49.66416677 372.24159132 49.77411938 372.89919186 C50.06290294 375.58503026 50 378.29868109 50 381 C18.98 381 -12.04 381 -44 381 C-43.36349548 373.36194573 -42.64229364 366.12735274 -41.2590332 358.6496582 C-40.90218221 356.66096834 -40.54612438 354.67213604 -40.19075012 352.68318176 C-40.00421183 351.64555002 -39.81767353 350.60791828 -39.62548256 349.53884315 C-38.41587124 342.7234831 -37.28387148 335.89468748 -36.14132404 329.06782246 C-35.14417745 323.13523926 -34.11909321 317.21050585 -33.02661133 311.29467773 C-27.4099874 280.73273433 -25.72135875 255.93504399 -35.96598816 226.24235535 C-37 223 -37 223 -37 220 C-33.7 220 -30.4 220 -27 220 C-27.30292969 218.83428467 -27.60585937 217.66856934 -27.91796875 216.4675293 C-29.03978744 212.14669336 -30.15684533 207.82463857 -31.27246094 203.50219727 C-31.75618573 201.63076669 -32.24120499 199.75967021 -32.72753906 197.88891602 C-33.42592641 195.20155 -34.11966607 192.51302109 -34.8125 189.82421875 C-35.03123779 188.98662521 -35.24997559 188.14903168 -35.4753418 187.28605652 C-35.67554932 186.50547379 -35.87575684 185.72489105 -36.08203125 184.9206543 C-36.25968018 184.23448532 -36.4373291 183.54831635 -36.62036133 182.84135437 C-37 181 -37 181 -37 178 C-33.7 178 -30.4 178 -27 178 C-27.30292969 176.8039917 -27.60585937 175.6079834 -27.91796875 174.37573242 C-29.03970611 169.94303602 -30.15678904 165.50917773 -31.27246094 161.07495117 C-31.75621454 159.15503376 -32.24123409 157.23543486 -32.72753906 155.31616211 C-33.42585051 152.55925701 -34.11961874 149.80124289 -34.8125 147.04296875 C-35.03123779 146.18350143 -35.24997559 145.32403412 -35.4753418 144.43852234 C-35.67554932 143.63791885 -35.87575684 142.83731537 -36.08203125 142.01245117 C-36.25968018 141.3085173 -36.4373291 140.60458344 -36.62036133 139.87931824 C-37 138 -37 138 -37 135 C-33.7 135 -30.4 135 -27 135 C-27.30292969 133.83952148 -27.60585937 132.67904297 -27.91796875 131.48339844 C-29.04102437 127.17590391 -30.15770066 122.86677698 -31.27246094 118.55712891 C-31.75574794 116.69241951 -32.24076185 114.8281568 -32.72753906 112.96435547 C-33.42707971 110.28468649 -34.12038622 107.60347046 -34.8125 104.921875 C-35.03123779 104.08944275 -35.24997559 103.2570105 -35.4753418 102.39935303 C-35.67554932 101.61884583 -35.87575684 100.83833862 -36.08203125 100.03417969 C-36.34850464 99.00825714 -36.34850464 99.00825714 -36.62036133 97.96160889 C-37 96 -37 96 -37 92 C-32.38 92 -27.76 92 -23 92 C-22.72285156 90.87980469 -22.44570312 89.75960937 -22.16015625 88.60546875 C-21.79433333 87.13279698 -21.42844447 85.66014158 -21.0625 84.1875 C-20.88009766 83.44951172 -20.69769531 82.71152344 -20.50976562 81.95117188 C-19.7577385 78.92939016 -18.98514427 75.95543282 -18 73 C-15.03 73 -12.06 73 -9 73 C-9.09087891 72.14768799 -9.18175781 71.29537598 -9.27539062 70.41723633 C-9.61292378 67.23988097 -9.94811238 64.0622893 -10.28173828 60.88452148 C-10.42631351 59.51202709 -10.57180928 58.13962934 -10.71826172 56.76733398 C-10.92920958 54.78915965 -11.13651853 52.81059836 -11.34375 50.83203125 C-11.46943359 49.64327393 -11.59511719 48.4545166 -11.72460938 47.22973633 C-12 44 -12 44 -12 39 C-8.37 39 -4.74 39 -1 39 C-1.00523682 37.88963379 -1.01047363 36.77926758 -1.01586914 35.63525391 C-1.03393985 31.52409671 -1.04543962 27.41294304 -1.05493164 23.30175781 C-1.05996711 21.52082733 -1.06679581 19.739901 -1.07543945 17.95898438 C-1.08753942 15.40233335 -1.09323609 12.84573688 -1.09765625 10.2890625 C-1.10281754 9.49005524 -1.10797882 8.69104797 -1.11329651 7.86782837 C-1.11387171 2.22774341 -1.11387171 2.22774341 0 0 Z " fill="#0B355D" transform="translate(241,122)"/>
<path d="M0 0 C5.86406016 4.85879271 5.86406016 4.85879271 6.57421875 9.1484375 C6.76273822 13.47788467 6.4332778 16.29258542 4.5625 20.25 C1.38132399 23.68232149 -1.18971861 25.6571108 -5.98828125 25.94140625 C-11.81749734 25.61810519 -14.80637647 24.01404419 -18.8125 19.8125 C-21.11801518 16.77341181 -21.23444607 13.6181693 -21.12890625 9.83984375 C-20.44504344 5.4580561 -17.88401738 2.73094347 -14.625 -0.0625 C-9.69294548 -2.03532181 -4.90076934 -2.06921372 0 0 Z " fill="#0F365F" transform="translate(250.8125,389.1875)"/>
<path d="M0 0 C5.86406016 4.85879271 5.86406016 4.85879271 6.57421875 9.1484375 C6.76273822 13.47788467 6.4332778 16.29258542 4.5625 20.25 C1.38132399 23.68232149 -1.18971861 25.6571108 -5.98828125 25.94140625 C-11.81749734 25.61810519 -14.80637647 24.01404419 -18.8125 19.8125 C-21.11801518 16.77341181 -21.23444607 13.6181693 -21.12890625 9.83984375 C-20.44504344 5.4580561 -17.88401738 2.73094347 -14.625 -0.0625 C-9.69294548 -2.03532181 -4.90076934 -2.06921372 0 0 Z M-16.8125 4.8125 C-19.07380969 8.56564594 -19.14553713 11.28430278 -18.5390625 15.55078125 C-17.44875433 18.94480506 -15.68304538 20.69051179 -12.84375 22.7734375 C-9.13017339 24.67307477 -6.95845949 24.53639769 -2.8125 23.8125 C0.1972291 22.03402372 2.59836334 19.99077333 4.1875 16.8125 C4.71868173 13.01834481 5.03839348 9.34918822 3.140625 5.921875 C0.81021153 3.09796221 -1.09357304 1.01850107 -4.80078125 0.57421875 C-10.10930769 0.40470278 -13.03442615 0.69096489 -16.8125 4.8125 Z " fill="#E4E3E8" transform="translate(250.8125,389.1875)"/>
<path d="M0 0 C7.92 0 15.84 0 24 0 C24 0.99 24 1.98 24 3 C16.08 3 8.16 3 0 3 C0 2.01 0 1.02 0 0 Z " fill="#D8D6DD" transform="translate(232,341)"/>
<path d="M0 0 C7.92 0 15.84 0 24 0 C24 0.99 24 1.98 24 3 C16.08 3 8.16 3 0 3 C0 2.01 0 1.02 0 0 Z " fill="#EBE9ED" transform="translate(232,214)"/>
<path d="M0 0 C4.10530384 1.73335051 6.73080717 4.15982752 9 8 C8.75 11.8125 8.75 11.8125 8 15 C7.67 15 7.34 15 7 15 C6.773125 13.7625 6.54625 12.525 6.3125 11.25 C5.54954058 8.34250601 4.94736547 6.93208448 3.0625 4.5 C-1.54215114 2.24466066 -5.9632571 2.68244703 -11 3 C-11 2.34 -11 1.68 -11 1 C-7.54849768 -0.72575116 -3.7810938 -0.36104194 0 0 Z " fill="#DFDDE3" transform="translate(248,388)"/>
<path d="M0 0 C0.33 0 0.66 0 1 0 C1.31774533 4.6073073 1.42909733 7.1253016 -0.625 11.3125 C-3.3577576 14.40483097 -5.06317532 15.73724492 -9 17 C-12.07799027 17.03067764 -15.02888413 16.83191244 -18 16 C-18.33 15.34 -18.66 14.68 -19 14 C-17.89591797 14.06960938 -17.89591797 14.06960938 -16.76953125 14.140625 C-10.70920934 14.38054938 -10.70920934 14.38054938 -5 12.625 C-2.08100636 8.79382084 -1.08993334 4.64329327 0 0 Z " fill="#EFEEF1" transform="translate(256,398)"/>
</svg>
